<?xml version="1.0" encoding="iso-8859-1"?>
<!-- Generator: Adobe Illustrator 24.2.0, SVG Export Plug-In . SVG Version: 6.00 Build 0)  -->
<svg version="1.1" id="Layer_1" xmlns="http://www.w3.org/2000/svg" xmlns:xlink="http://www.w3.org/1999/xlink" x="0px" y="0px"
	 width="150px" height="150px" viewBox="0 0 150 150" enable-background="new 0 0 150 150" xml:space="preserve">
<g>
	<g>
		<g>
			<path fill="#fff" d="M75,147.5c-39.976,0-72.5-32.523-72.5-72.5C2.5,35.024,35.024,2.5,75,2.5c39.977,0,72.5,32.524,72.5,72.5
				C147.5,114.977,114.977,147.5,75,147.5z M75,8.67C38.426,8.67,8.67,38.426,8.67,75c0,36.575,29.756,66.33,66.33,66.33
				c36.575,0,66.33-29.755,66.33-66.33C141.33,38.426,111.575,8.67,75,8.67z"/>
		</g>
		<g>
			<path fill="#fff" d="M75,123.13c-26.539,0-48.13-21.591-48.13-48.13h6.17c0,23.137,18.823,41.96,41.96,41.96
				c23.138,0,41.962-18.824,41.962-41.96h6.17C123.131,101.539,101.54,123.13,75,123.13z"/>
		</g>
	</g>
	<g>
		<path fill="#fff" d="M88.155,70.061h5.307V48.832h9.59v-5.307H78.564v5.307h9.591V70.061z M49.563,70.061h5.307V59.446h11.638
			v10.615h5.307V43.524h-5.307v10.615H54.871V43.524h-5.307V70.061z"/>
	</g>
</g>
<g>
</g>
<g>
</g>
<g>
</g>
<g>
</g>
<g>
</g>
<g>
</g>
</svg>
