<svg xmlns="http://www.w3.org/2000/svg" width="145" height="145" viewBox="0 0 145 145">
  <g>
    <g>
      <path d="M75,147.5A72.5,72.5,0,1,1,147.5,75,72.582,72.582,0,0,1,75,147.5ZM75,8.67A66.33,66.33,0,1,0,141.33,75,66.406,66.406,0,0,0,75,8.67Z" transform="translate(-2.5 -2.5)" fill="#000"/>
      <path d="M75,123.13A48.185,48.185,0,0,1,26.869,75h6.17a41.961,41.961,0,0,0,83.922,0h6.17A48.185,48.185,0,0,1,75,123.13Z" transform="translate(-2.5 -2.5)" fill="#000"/>
    </g>
    <path d="M88.155,70.061h5.307V48.832h9.59V43.524H78.564v5.308h9.591Zm-38.592,0h5.308V59.446H66.508V70.061h5.308V43.524H66.508V54.139H54.871V43.524H49.563Z" transform="translate(-2.5 -2.5)" fill="#000"/>
  </g>
</svg>
