<?xml version="1.0" encoding="iso-8859-1"?>
<!-- Generator: Adobe Illustrator 24.2.0, SVG Export Plug-In . SVG Version: 6.00 Build 0)  -->
<svg version="1.1" id="Layer_1" xmlns="http://www.w3.org/2000/svg" xmlns:xlink="http://www.w3.org/1999/xlink" x="0px" y="0px"
	 width="200px" height="20px" viewBox="0 0 200 20" enable-background="new 0 0 200 20" xml:space="preserve">
<g>
	<defs>
		<rect id="SVGID_1_" x="0" y="0.128" width="200" height="19.744"/>
	</defs>
	<clipPath id="SVGID_2_">
		<use xlink:href="#SVGID_1_"  overflow="visible"/>
	</clipPath>
	<path clip-path="url(#SVGID_2_)" fill="#000" d="M193.457,19.872c3.808,0,6.345-2.2,6.345-5.726
		c0-3.271-2.256-4.794-5.246-5.838c-2.622-0.875-3.581-1.27-3.581-2.511c0-1.128,0.902-1.719,2.396-1.719
		c1.75,0,2.709,0.846,3.075,2.51L200,5.121c-0.705-3.132-3.103-4.993-6.628-4.993c-3.808,0-6.345,2.2-6.345,5.726
		c0,3.273,2.256,4.796,5.245,5.839c2.623,0.873,3.582,1.269,3.582,2.51c0,1.128-0.902,1.721-2.396,1.721
		c-1.75,0-2.709-0.875-3.075-2.51l-3.553,1.466C187.534,18.01,189.932,19.872,193.457,19.872 M168.664,19.872h12.75v-3.949h-8.801
		v-3.949h8.801V8.026h-8.801V4.078h8.801v-3.95h-12.75V19.872z M152.927,15.924c-3.469,0-5.924-2.482-5.924-5.924
		c0-3.469,2.455-5.922,5.924-5.922c3.441,0,5.922,2.453,5.922,5.922C158.849,13.441,156.368,15.924,152.927,15.924 M152.927,19.872
		c5.64,0,9.872-4.231,9.872-9.872c0-5.64-4.232-9.872-9.872-9.872c-5.642,0-9.872,4.232-9.872,9.872
		C143.055,15.642,147.285,19.872,152.927,19.872 M128.05,19.872h3.949V4.078h7.136v-3.95h-18.22v3.95h7.136V19.872z M95.134,19.872
		h3.95v-7.644l8.066-12.1h-4.767l-5.274,7.899l-5.274-7.899h-4.767l8.066,12.1V19.872z M72.882,9.972V4.078h3.779
		c1.891,0,2.991,1.241,2.991,2.96c0,1.693-1.1,2.934-2.991,2.934H72.882z M68.933,19.872h3.949v-5.951h3.779
		c4.034,0,6.939-2.905,6.939-6.883c0-3.976-2.905-6.91-6.939-6.91h-7.727V19.872z M52.63,9.972V4.078h3.78
		c1.889,0,2.989,1.241,2.989,2.96c0,1.693-1.1,2.934-2.989,2.934H52.63z M48.682,19.872h3.949v-5.951h3.78
		c4.033,0,6.938-2.905,6.938-6.883c0-3.976-2.905-6.91-6.938-6.91h-7.729V19.872z M29.249,12.793l3.356-7.249l3.357,7.249H29.249z
		 M39.233,19.872h4.344L34.438,0.128h-3.667l-9.138,19.744h4.344l1.437-3.13h10.379L39.233,19.872z M0,19.872h3.949v-7.897h8.659
		v7.897h3.949V0.128h-3.949v7.899H3.949V0.128H0V19.872z"/>
</g>
<g>
</g>
<g>
</g>
<g>
</g>
<g>
</g>
<g>
</g>
<g>
</g>
</svg>
